<svg xmlns="http://www.w3.org/2000/svg" viewBox="0 0 24 24" fill="currentColor">
  <path d="M23.997 6.124c0-.738-.065-1.47-.24-2.19-.317-1.31-1.062-2.31-2.18-3.043C21.003.517 20.373.285 19.7.164c-.517-.093-1.038-.135-1.564-.15-.04-.003-.083-.01-.124-.013H5.988c-.152.01-.303.017-.455.034C4.786.098 4.043.22 3.34.594 2.004 1.222 1.095 2.291.416 3.681c-.21.42-.344.877-.428 1.342-.08.443-.133.892-.151 1.343-.01.18-.01.36-.01.541v10.9c0 .151.001.302.01.453.018.437.069.87.151 1.297.082.424.207.839.387 1.23.556 1.168 1.344 2.039 2.333 2.621.675.397 1.422.622 2.198.743.49.076.994.111 1.493.125.152.004.305.01.458.01h12.033c.148 0 .297-.006.444-.01.501-.014 1.005-.05 1.495-.125.463-.071.914-.177 1.347-.43 1.316-.77 2.244-1.909 2.714-3.384.2-.629.263-1.288.299-1.943.024-.4.035-.801.035-1.202V6.124zM9.68 16.447c-1.492 0-2.459-.611-2.459-1.538 0-.848.492-1.342 1.31-1.342.492 0 .884.197 1.278.615l.024-.024c-.036-.71-.053-1.422-.053-2.114V5.568c0-.907.053-1.026.947-1.249 1.022-.256 2.045-.493 3.067-.71.849-.183 1.013-.13 1.013.738v7.206c0 1.919-1.435 3.13-3.554 3.13-.023 0-.046-.001-.07-.002-.515-.013-1.455-.233-1.503-.29zm8.444-8.134a.896.896 0 0 1-.895-.896V4.78a.896.896 0 1 1 1.791 0v2.637a.896.896 0 0 1-.896.896z"/>
</svg>
